<svg width="8" height="18" viewBox="0 0 8 18" fill="none" xmlns="http://www.w3.org/2000/svg">
<path d="M1.71453 3.69582C1.71453 4.1226 1.71453 6.0352 1.71453 6.0352H-0.000488281V8.89619H1.71453V17.4001H5.23545V8.89619H7.59854C7.59854 8.89619 7.81983 7.52497 7.92652 6.02334C7.61829 6.02334 5.2473 6.02334 5.2473 6.02334C5.2473 6.02334 5.2473 4.3597 5.2473 4.06728C5.2473 3.77486 5.63061 3.37969 6.00997 3.37969C6.38933 3.37969 7.18757 3.37969 7.93048 3.37969C7.93048 2.98848 7.93048 1.64492 7.93048 0.400146C6.94256 0.400146 5.81634 0.400146 5.32239 0.400146C1.62759 0.404098 1.71453 3.26904 1.71453 3.69582Z" fill="#F6F6F5"/>
</svg>
