<svg width="18" height="12" viewBox="0 0 18 12" fill="none" xmlns="http://www.w3.org/2000/svg">
<path d="M9.20728 11.9469C7.29703 11.8867 5.48045 11.8398 3.66387 11.7696C3.27245 11.7529 2.87435 11.6926 2.49297 11.6023C1.77704 11.435 1.28191 11.0035 1.02766 10.2976C0.823588 9.72886 0.749989 9.14341 0.696461 8.54792C0.579371 7.14952 0.579371 5.75112 0.636243 4.35273C0.669698 3.5632 0.689771 2.76698 0.900534 2.00088C1.02766 1.54255 1.18155 1.09426 1.5529 0.763062C1.94431 0.41179 2.40264 0.201027 2.92453 0.177609C4.35638 0.107355 5.78488 0.0203732 7.21674 0.00699145C9.14371 -0.0130812 11.074 0.0136824 13.001 0.0504824C13.834 0.0672096 14.6737 0.1107 15.5001 0.217755C16.2561 0.318118 16.8215 0.739644 17.1226 1.47564C17.3534 2.04102 17.4404 2.63317 17.4906 3.23535C17.6211 4.74414 17.6244 6.25294 17.5508 7.76174C17.514 8.52784 17.4772 9.2973 17.2598 10.0433C17.0122 10.8998 16.487 11.4651 15.6105 11.6592C15.2692 11.7328 14.9146 11.7595 14.5667 11.7729C12.7468 11.8365 10.9302 11.8934 9.20728 11.9469ZM7.35725 8.14312C8.88277 7.35359 10.3916 6.57076 11.9305 5.7712C10.3949 4.96829 8.88611 4.18211 7.35725 3.38255C7.35725 4.97833 7.35725 6.54734 7.35725 8.14312Z" fill="#F6F6F5"/>
</svg>
