<svg width="14" height="18" viewBox="0 0 14 18" fill="none" xmlns="http://www.w3.org/2000/svg">
<path d="M7.34252 0.400203C2.72782 0.400203 0.400879 3.7264 0.400879 6.50007C0.400879 8.17951 1.03341 9.6737 2.38995 10.2306C2.61232 10.3219 2.81168 10.2334 2.87616 9.98613C2.92102 9.81477 3.02724 9.38243 3.0746 9.20253C3.13962 8.9576 3.11441 8.87168 2.93493 8.65825C2.54378 8.19437 2.29378 7.59389 2.29378 6.74336C2.29378 4.27564 4.13033 2.06661 7.07601 2.06661C9.68432 2.06661 11.1174 3.66884 11.1174 5.80864C11.1174 8.62412 9.87795 11.0004 8.03805 11.0004C7.02183 11.0004 6.26126 10.1555 6.50502 9.11947C6.79704 7.8824 7.36259 6.54745 7.36259 5.65449C7.36259 4.85526 6.93582 4.18859 6.05254 4.18859C5.0138 4.18859 4.17934 5.26891 4.17934 6.71604C4.17934 7.63771 4.48918 8.26114 4.48918 8.26114C4.48918 8.26114 3.42622 12.7891 3.23984 13.582C2.86868 15.1612 3.18398 17.0973 3.21078 17.2928C3.22638 17.4086 3.37451 17.4362 3.44149 17.3486C3.53733 17.2228 4.77456 15.6874 5.19513 14.1532C5.31415 13.7188 5.87844 11.4691 5.87844 11.4691C6.21585 12.1163 7.20214 12.6863 8.25097 12.6863C11.3734 12.6863 13.4918 9.82457 13.4918 5.99411C13.4917 3.0976 11.0514 0.400146 7.34252 0.400146V0.400203Z" fill="#F6F6F5"/>
</svg>
