<svg width="18" height="14" viewBox="0 0 18 14" fill="none" xmlns="http://www.w3.org/2000/svg">
<path d="M0.622637 12.3286C2.49045 12.4965 4.1735 12.0262 5.70537 10.8773C4.10295 10.7362 3.03131 9.9367 2.43334 8.43842C2.9574 8.50225 3.44787 8.51905 3.96858 8.37795C2.24186 7.84045 1.32139 6.7117 1.19709 4.89092C1.71443 5.1328 2.20154 5.30749 2.776 5.3142C1.75139 4.54491 1.22732 3.54717 1.24748 2.29077C1.25756 1.71295 1.41209 1.16874 1.71779 0.654751C3.61584 2.8753 5.99764 4.10483 8.93038 4.30975C8.91358 4.18209 8.9035 4.08131 8.89006 3.97717C8.64819 2.11608 9.85756 0.422954 11.7052 0.0702201C12.8642 -0.151499 13.8888 0.154205 14.7555 0.953736C14.8899 1.07467 15.0041 1.10155 15.1721 1.05788C15.8473 0.886548 16.489 0.637954 17.1105 0.302017C16.8719 1.08811 16.3815 1.67936 15.7163 2.17655C15.8675 2.14967 16.022 2.12952 16.1732 2.09928C16.3311 2.06569 16.489 2.02874 16.6469 1.98506C16.798 1.94475 16.9459 1.89772 17.0937 1.84733C17.2448 1.79694 17.396 1.73983 17.5741 1.70959C17.4867 1.83053 17.4027 1.95819 17.3087 2.07577C16.919 2.56959 16.4688 3.00295 15.975 3.38928C15.9246 3.42959 15.8809 3.51694 15.8843 3.57741C15.9112 4.76998 15.7432 5.93233 15.3569 7.06108C14.5976 9.28498 13.2741 11.0856 11.2887 12.3722C10.3077 13.0072 9.23608 13.4237 8.09053 13.6656C6.95506 13.9041 5.81287 13.9478 4.66733 13.8134C3.51842 13.679 2.42662 13.3397 1.39865 12.809C1.12654 12.6712 0.864512 12.5167 0.599121 12.3689C0.609199 12.3555 0.615918 12.342 0.622637 12.3286Z" fill="#F6F6F5"/>
</svg>
